<svg xmlns="http://www.w3.org/2000/svg" viewBox="0 0 500 500"><path d="M60.67 373.42a33.64 33.64 0 0 0-14.4-4.95c-2.35-.25-4.92-.18-6.81 1.25a1.4 1.4 0 0 0-.7 1.24 1.5 1.5 0 0 0 .67.85c5.86 4.47 14.71 5 21.24 1.61m-.37-.42a69.6 69.6 0 0 1-9.3-8.18 23.54 23.54 0 0 1-5.83-10.78 4.35 4.35 0 0 1 .46-3.61C53 356.23 58.87 363.72 60.3 373" style="fill:#e0e0e0"/><path d="M60.59 373.36a33.6 33.6 0 0 1 .17-12.2 16.5 16.5 0 0 1 6.51-10.08c1.28 3 .73 6.45-.18 9.57a46.6 46.6 0 0 1-6.44 13.58m7.21 12.15c-4.41.54-8.26 2.86-11.55 5.84a21.9 21.9 0 0 0-6.6 11.34c4.32-.27 8-3.32 10.66-6.74s4.5-7.17 7.43-10.37m1.63 2.01a28.48 28.48 0 0 1 3.29-26.93c2.51 8.94 1.59 19-3.29 26.93M79 399.89a20.6 20.6 0 0 0-19.68 11.34 1.52 1.52 0 0 0-.14 1.54 1.48 1.48 0 0 0 1.31.38c3.88-.25 7.32-2.58 10.16-5.24s5.3-5.73 8.44-8m-.36-.64a36.6 36.6 0 0 1-.37-20.48c.72-2.64 1.93-5.41 4.37-6.65a.85.85 0 0 1 .67-.11.82.82 0 0 1 .42.49 12.26 12.26 0 0 1 1 5.87 36.4 36.4 0 0 1-.92 5.95c-.76 3.63-1.17 7.54-3.17 10.68a21 21 0 0 0-1.26 2.34c-.38.8-.39 1.08-.73 1.71m25.4 3.99c-1.89-7.16.11-15.84 4.62-21.71.34-.44.78-.9 1.32-.85.83.08 1 1.18 1 2a39.3 39.3 0 0 1-7 20.54m2.35 1.58a31.52 31.52 0 0 0 25.91-5.27 21 21 0 0 0-14-1.72c-4.68 1.07-9 3.17-11.88 7m1.9-4.77c4.87-7.95 14.21-13.13 23.52-13.61-1.07 3.79-4.18 6.73-7.69 8.51s-7.43 2.55-11.29 3.3c-1.51.29-3.57.62-4.54 1.8m-3.74-23.14a68 68 0 0 0 3-13.78c.36-4.69-.31-9.59-2.74-13.62-4.56 8.81-5 19.1-.41 27.87m15.47-8.19c5.33-9.67 16.19-17.4 27.17-18.48-4.23 10.56-15.79 18.71-27.17 18.48m-3.34 1.87c7.93 1.21 14.7 6.28 22.11 9.35a10 10 0 0 0 5 1 3.91 3.91 0 0 0 2.45-6.92 10.75 10.75 0 0 0-3.64-2.21c-8.08-3.36-16.74-3.45-25.25-1.41" style="fill:#e0e0e0"/><path d="M112 376.44c1.8.51 2.41 1.44 3.84 2.65a41.25 41.25 0 0 0 16.77 8.62c.64.16 1.48.22 1.8-.36s-.08-1.11-.44-1.56a23 23 0 0 0-10.12-6.88c-3.87-1.44-7.23-3.18-11.85-2.81m-5.18-33.29a31.72 31.72 0 0 0 24.34 8.28 1.63 1.63 0 0 0 1.1-.4c.62-.66-.12-1.69-.83-2.25-7.16-5.58-15.82-7.89-24.61-5.63" style="fill:#e0e0e0"/><path d="M113 340.56a34 34 0 0 1 30.37-5 24.12 24.12 0 0 1-14.47 6.36 45.9 45.9 0 0 1-15.9-1.35m-2.48-15.46c-.7-7.14-.24-12.78-.74-19.95 0-.58-.16-1.27-.7-1.47-.75-.29-1.37.63-1.61 1.39a22.85 22.85 0 0 0 3 19.87" style="fill:#e0e0e0"/><path d="M110 325.9a41.9 41.9 0 0 0 11.83-11.5c2.33-3.19 4.3-7 3.77-10.95a11.34 11.34 0 0 0-8.53 4.24 23.9 23.9 0 0 0-4.35 8.75c-1 3.14-1.61 6.37-2.72 9.46m11.63-3.23a95.2 95.2 0 0 0 29.11-17.17c-3.47-1.4-7.45-.56-10.93.85a34.47 34.47 0 0 0-18.33 16.24m-8.2 7.22c5.37.58 10.83 1 16.16.08s10.2-3 15.09-5a1.75 1.75 0 0 0 1-.78 1.18 1.18 0 0 0-.37-1.29 3.1 3.1 0 0 0-1.29-.6c-5.32-1.49-11.07-.79-16.3 1a75.7 75.7 0 0 0-14.32 6.64m-30.66 13.2c-3.67-7.41-3.43-16-.26-23.67 2.23 3.4 2.5 7.72 2.09 11.77s-1.64 8.2-1.72 12.26m-14.76-7.75a33 33 0 0 0-24.53 10.45 22.9 22.9 0 0 0 13.43-2.49 68 68 0 0 0 11.51-7.71m-10.26-3.55c-4.48-.36-8.79-.91-13.09.41a15.67 15.67 0 0 0-10 8.46 23.66 23.66 0 0 0 12.27-2.32 70.5 70.5 0 0 0 10.8-6.55m14.6.16c-4-2.64-8.16-5.33-12.85-6.43s-10.13-.28-13.4 3.25c3.79 2.23 8.4 2.5 12.81 2.49s9.8 0 14 1.42" style="fill:#e0e0e0"/><path d="M72.7 332.74c-6.89-6.74-9.5-18.92-6.7-28.16a42.92 42.92 0 0 1 6.73 28.16m18.91-19.17c1.3-3 2.21-6.18 3.38-9.26a26.6 26.6 0 0 1 4.81-8.54 12.67 12.67 0 0 1 8.53-4.42 34.3 34.3 0 0 1-16.55 22.27m-3.6 3.95c-2.15-3-4.63-7-7.55-9.19s-6.71-3.54-10.27-2.69a23.94 23.94 0 0 0 17.82 11.88m.69-3.75a51 51 0 0 1-3.4-11 17.14 17.14 0 0 1 1.72-11.19c3.78 7.14 5 14.82 1.87 22.27m2.58-22.27c2.14-7.09 8.63-12.3 15.64-14.7a5.86 5.86 0 0 1 2.74-.41 2.38 2.38 0 0 1 2 1.69c.25 1.2-.74 2.28-1.68 3.08a53.1 53.1 0 0 1-18.72 10.34m.1-5.8c.27-4.57.56-9.2 2-13.53s4.35-8.39 8.52-10.28c.71 4.61-1.33 9.2-3.78 13.17s-5.42 7.72-6.89 12.15m.04 1.66c-1.77-5.17-2-11.72-5-16.22-2.16-3.15-5.62-5.29-7.48-8.62a13.1 13.1 0 0 0 .43 9.78 28.3 28.3 0 0 0 5.72 8.19c2.29 2.44 4.25 4.28 6.38 6.87" style="fill:#e0e0e0"/><path d="M91.67 441c-.14 0-.25-34.45-.26-76.93s.09-76.93.23-76.93.25 34.44.26 76.93-.09 76.93-.23 76.93" style="fill:#e0e0e0"/><path d="M121.77 337.86a8 8 0 0 1-1.29.48l-3.57 1.21c-3 1-7.13 2.5-11.61 4.34s-8.62 3.45-11 5.51a8 8 0 0 0-2.21 2.93c-.35.81-.41 1.3-.45 1.29s0-.12 0-.36a5.7 5.7 0 0 1 .25-1 7.9 7.9 0 0 1 2.16-3.12 19.7 19.7 0 0 1 4.78-3c1.91-.89 4-1.82 6.27-2.74 4.5-1.84 8.66-3.28 11.7-4.22 1.51-.47 2.75-.82 3.61-1a7 7 0 0 1 1.36-.32" style="fill:#e0e0e0"/><path d="M131.64 313.62s-.11.15-.36.39l-1.11 1-4.12 3.75L112.31 331c-5.36 4.77-10 9.33-13.2 12.76-1.61 1.72-2.88 3.14-3.74 4.13l-1 1.14a2.3 2.3 0 0 1-.37.38s.09-.17.29-.45.51-.69.93-1.2c.82-1 2-2.49 3.63-4.24A176 176 0 0 1 112 330.65c5.38-4.76 10.28-9 13.83-12.12 1.75-1.49 3.18-2.72 4.23-3.63l1.17-1a3 3 0 0 1 .41-.28" style="fill:#e0e0e0"/><path d="M106.52 335.88c-.14-.06 1-2.65 2.1-5.92s1.66-6 1.8-6a20.2 20.2 0 0 1-1.33 6.17 39 39 0 0 1-1.67 4.14 6.2 6.2 0 0 1-.9 1.61M91.7 356.73a7 7 0 0 1-.82-1l-2.12-2.72c-1.78-2.29-4.23-5.47-7-8.94s-5.29-6.58-7.12-8.84l-2.16-2.67a6 6 0 0 1-.75-1 5.2 5.2 0 0 1 .89.89c.55.6 1.34 1.48 2.29 2.58 1.9 2.2 4.48 5.28 7.24 8.75s5.18 6.69 6.88 9c.86 1.18 1.54 2.14 2 2.81a6 6 0 0 1 .67 1.14" style="fill:#e0e0e0"/><path d="M85.1 348.25a12.1 12.1 0 0 1-2.76-5.17 14.9 14.9 0 0 1-.63-5.22h.22c-.1.4-.17.61-.21.6s0-.23 0-.64h.22a23.4 23.4 0 0 0 .89 5.08 40 40 0 0 0 2.27 5.35m-8.52-10.71a8.3 8.3 0 0 0-1.93-1.13 13 13 0 0 0-5.36-.42 32 32 0 0 0-5.4.87 15 15 0 0 1-2.22.53 7.8 7.8 0 0 1 2.13-.87 24.4 24.4 0 0 1 5.45-1 11.7 11.7 0 0 1 5.53.6 3.37 3.37 0 0 1 1.8 1.42m-2.02-2.6c0 .08-1.12-.45-3-1.08a30.4 30.4 0 0 0-7.37-1.52 30.8 30.8 0 0 0-7.53.38c-1.91.35-3.06.7-3.09.62a2.9 2.9 0 0 1 .79-.33 17 17 0 0 1 2.23-.63 26.1 26.1 0 0 1 7.63-.53 26.5 26.5 0 0 1 7.47 1.68 18 18 0 0 1 2.11 1c.52.22.78.38.76.41M91.64 324a59.5 59.5 0 0 1-2.16-7.49 59 59 0 0 1-1.67-7.61 63 63 0 0 1 2.19 7.44 62 62 0 0 1 1.64 7.66" style="fill:#e0e0e0"/><path d="M91.77 324a33.6 33.6 0 0 0-2.39-4.48 19.6 19.6 0 0 0-3.51-3.63c0-.06.58.15 1.35.7a11 11 0 0 1 2.57 2.64 10 10 0 0 1 1.98 4.77m-.1 98.68s-.15-.83-.54-2.29a33.4 33.4 0 0 0-2.3-6c-2.38-4.86-6.71-11-12.22-17.2-2.72-3.12-5.37-6.06-7.61-8.87a62 62 0 0 1-5.45-7.86 37 37 0 0 1-2.75-5.83c-.25-.71-.44-1.28-.54-1.66a2.4 2.4 0 0 1-.14-.6s.29.79.86 2.19a43 43 0 0 0 2.87 5.73 68 68 0 0 0 5.5 7.74c2.26 2.79 4.91 5.71 7.64 8.83 5.52 6.19 9.84 12.44 12.15 17.38a29.7 29.7 0 0 1 2.18 6.07 17 17 0 0 1 .3 1.73 2.6 2.6 0 0 1 .05.64m27.2-30.68a11 11 0 0 1-1.42.8 32 32 0 0 0-3.7 2.45 42 42 0 0 0-4.86 4.43c-1.7 1.8-3.46 3.89-5.25 6.13-3.58 4.5-6.93 8.47-8.94 11.65-1 1.57-1.76 2.9-2.24 3.83a12 12 0 0 1-.79 1.44 1.6 1.6 0 0 1 .13-.41c.11-.25.25-.64.48-1.11a38 38 0 0 1 2.12-3.94c1.95-3.25 5.28-7.28 8.85-11.77 1.8-2.25 3.58-4.34 5.31-6.14a39.5 39.5 0 0 1 5-4.39 26 26 0 0 1 3.82-2.34c.47-.23.86-.38 1.11-.49Z" style="fill:#e0e0e0"/><path d="M119.41 401.92a22 22 0 0 1-3 .44 39.5 39.5 0 0 0-7.14 1.41 21.3 21.3 0 0 0-6.4 3.35c-1.48 1.14-2.17 2.09-2.24 2s.12-.27.44-.69a12 12 0 0 1 1.57-1.61 19.3 19.3 0 0 1 6.47-3.56 32.6 32.6 0 0 1 7.27-1.28 17 17 0 0 1 3.03-.06" style="fill:#e0e0e0"/><path d="M101.49 408.06c-.16-.09 1.2-2.17 2.25-5s1.22-5.28 1.4-5.25a5 5 0 0 1 0 1.62 17.6 17.6 0 0 1-.88 3.8 18.6 18.6 0 0 1-1.75 3.5 5 5 0 0 1-1.02 1.33m26.19-42.86a2.6 2.6 0 0 1-.48.25l-1.42.65c-.62.26-1.37.6-2.22 1s-1.84.89-2.88 1.51l-1.64.93c-.57.33-1.13.72-1.73 1.1-1.22.73-2.43 1.64-3.73 2.56a64.1 64.1 0 0 0-14.33 14.83c-.88 1.33-1.74 2.57-2.43 3.81-.36.61-.73 1.19-1 1.77s-.59 1.14-.88 1.68c-.58 1.05-1 2.06-1.41 2.92s-.73 1.63-1 2.26l-.6 1.44a2.4 2.4 0 0 1-.24.49 3 3 0 0 1 .15-.53c.13-.39.3-.87.51-1.47a23 23 0 0 1 .9-2.3c.38-.88.78-1.9 1.35-3l.85-1.7c.31-.59.67-1.18 1-1.8.68-1.25 1.54-2.51 2.41-3.86a62 62 0 0 1 14.44-14.94c1.31-.92 2.55-1.82 3.78-2.54.6-.37 1.18-.76 1.75-1.08l1.67-.91c1.06-.6 2.07-1 2.93-1.45a24 24 0 0 1 2.27-1l1.45-.56a2.2 2.2 0 0 1 .53-.06" style="fill:#e0e0e0"/><path d="M106.15 379.62a3.5 3.5 0 0 1 1.19-1.76 7.44 7.44 0 0 1 4.77-1.83 12.8 12.8 0 0 1 5 1 6.7 6.7 0 0 1 1.89.92 11.5 11.5 0 0 1-2-.59 15.3 15.3 0 0 0-4.89-.82 7.8 7.8 0 0 0-4.55 1.6 15 15 0 0 0-1.41 1.48m-3.21 3.32a18.5 18.5 0 0 0 1.35-4.41 18 18 0 0 0-.3-4.6 3.14 3.14 0 0 1 .56 1.29 9.1 9.1 0 0 1-.77 6.6 3.1 3.1 0 0 1-.84 1.12m-35.06 44.67c.74 13.17 4.71 26.55 10.81 40.09h26.53c5.82-13.4 9.52-26.77 10.17-40.09Z" style="fill:#e0e0e0"/><path d="M111.09 448.91c0 .14-8.73.25-19.51.25s-19.51-.11-19.51-.25 8.74-.24 19.51-.24 19.51.11 19.51.24m-.59 4.77c0 .14-8.19.25-18.29.25s-18.29-.11-18.29-.25 8.19-.25 18.29-.25 18.29.12 18.29.25m-31.38-17.42a75 75 0 0 1 0 12.22 75 75 0 0 1 0-12.22" style="fill:#fafafa"/><path d="M93.34 436.26a80 80 0 0 1 0 12.65 80 80 0 0 1 0-12.65m13.34-.11a83.5 83.5 0 0 1 0 12.91 83.5 83.5 0 0 1 0-12.91" style="fill:#fafafa"/><path d="M114.55 436.26c0 .13-10.25.25-22.88.25s-22.89-.12-22.89-.25S79 436 91.67 436s22.88.12 22.88.26" style="fill:#fafafa"/><path d="M415.38 458.65c-1.57-1.35-5.07-5.6-2.37-10.55 1-1.82 3.09-2.72 5-3.52a20.2 20.2 0 0 0 5.46-2.83c3-2.52 3.78-6.71 5.75-10.07 2.26-3.86 6.48-6.76 10.93-6.55 5.1.23 9.35 4.39 11.28 9.14s2 10 2 15.16c0 2.83-.11 6-2.19 7.94-1.92 1.77-4.81 1.79-7.41 1.71l-27.83-.85" style="fill:#f5f5f5"/><path d="M468.69 382h-73.31l13.21 78.73a8.79 8.79 0 0 0 6.26 7l.25.07c.22.06.43.13.66.17a9 9 0 0 0 1.49.17v.08l.36-.06h32.67a9.37 9.37 0 0 0 9.21-7.87l6.37-54.25.28-2.16 2.52-21.48Zm-13.83 50.22h-7.52l.76-22.85h8.71Zm2.68-22.85h7.2l-2.68 22.85h-6.47Zm-21.49 48.18-.46-19.85h10.84l-.66 19.85Zm-11.71-19.85h10.52l.46 19.85h-9.44Zm.81 19.85h-8.82l-3.11-19.85h10.39Zm-1.24-25.33-1.77-22.85h12.07l.53 22.85Zm11.56 0-.53-22.85h12.43l-.76 22.85Zm-.66-28.33-.48-21.16h13.92l-.7 21.16Zm-.72 0h-12.38l-1.64-21.16h13.53Zm-13.11 0h-13.09c-.47-2.92-.91-5.69-1.3-8.18-1.37-8.55-1.88-11.77-2.17-13h14.92Zm.43 5.48 1.77 22.85h-10.82q-.56-3.48-1.11-7c-.85-5.39-1.7-10.78-2.49-15.84Zm-9.79 22.85h-7.07l-3.84-22.85H408c1.14 7.06 2.37 14.92 3.62 22.85m.86 5.48c1.08 6.87 2.14 13.65 3.11 19.85h-6.8l-3.33-19.85Zm34 19.85.66-19.85h7.24l-1.7 19.85Zm1.79-53.66.7-21.16h10.11l-1.81 21.16Zm-44.55-21.16c.29 1.53 1.63 9.86 3.42 21.16h-7.36l-3.55-21.16Zm55.36 74.82h-5.67l1.7-19.85h6.3Zm6.3-53.66H458l1.81-21.16h8.05Zm-9.76-361.14v94.59H319.77l-4.89-93.92z" style="fill:#e0e0e0"/><path d="M335.94 22.35h93.72V158.2h-93.72z" style="fill:#f5f5f5" transform="rotate(-90 382.8 90.28)"/><path d="M451.37 137.78H314.23v-95h137.14Zm-135.85-1.29h134.56V44.06H315.52Z" style="fill:#e0e0e0"/><path d="M329.59 55.06h106.42v70.43H329.59z" style="fill:#fff"/><path d="M436 55.06h-7.88l-21.93.09-76.61.15.31-.31v70.43l-.34-.33 106.42.07-.27.26c.06-21.43.11-39 .14-51.24 0-6.12.06-10.9.07-14.17v-5.02 4.91c0 3.26 0 8 .07 14.11 0 12.28.08 29.91.14 51.41v.27H436l-106.42.07h-.34V54.68h.31l76.81.15 21.86.09L434 55h1.48Z" style="fill:#e0e0e0"/><path d="M314.88 43.15a11.8 11.8 0 0 1 2.33 1.52c1.39 1 3.28 2.42 5.33 4.06s3.84 3.18 5.1 4.34a11 11 0 0 1 1.95 2c-.13.14-3.39-2.55-7.47-5.81s-7.36-5.95-7.24-6.11m135.84.27c.12.14-3.08 2.87-7.14 6.08s-7.45 5.71-7.57 5.56 3.09-2.87 7.15-6.09 7.45-5.7 7.56-5.55" style="fill:#e0e0e0"/><path d="m450.62 137.15-15.15-12.27" style="fill:#fff"/><path d="M435.47 124.88c.12-.15 3.6 2.48 7.78 5.87s7.48 6.26 7.37 6.4-3.61-2.49-7.79-5.88-7.48-6.27-7.36-6.39m-120.59 12.26c-.12-.15 3.05-2.84 7.07-6s7.37-5.64 7.49-5.5-3.05 2.84-7.07 6-7.37 5.64-7.49 5.5" style="fill:#e0e0e0"/><path d="M372.89 55.32h23.58v66.96h-23.58z" style="fill:#e0e0e0" transform="rotate(-90 384.675 88.795)"/><path d="M206.74 436.28v31.06h95.52v-31.06z" style="fill:#f5f5f5"/><path d="M202.73 427.59v8.69h102.88v-8.69z" style="fill:#ebebeb"/><path d="M254.17 467.34h48.09v-31.06h3.35v-8.69h-53.45v7.88z" style="fill:#ebebeb"/><path d="M220.1 441.29h19.37v4.68H220.1z" style="fill:#e0e0e0"/><path d="M217.61 451.81h24.88v9.87h-24.88z" style="fill:#fff"/><path d="M221.44 396.57v31.06h95.52v-31.06z" style="fill:#f5f5f5"/><path d="M217.43 387.89v8.68H320.3v-8.68z" style="fill:#ebebeb"/><path d="M268.86 427.63h48.1v-31.06h3.34v-8.68h-53.44v7.88z" style="fill:#ebebeb"/><path d="M234.8 401.58h19.37v4.68H234.8z" style="fill:#e0e0e0"/><path d="M232.3 412.1h24.88v9.87H232.3z" style="fill:#fff"/><path d="M58.63 40.89h58.44v60.92H58.63z" style="fill:#e0e0e0"/><path d="M54.67 40.89h58.44v60.92H54.67z" style="fill:#fafafa"/><path d="M113.13 101.83H54.66v-61h58.47Zm-58.44 0h58.4V40.91h-58.4Z" style="fill:#e0e0e0"/><path d="M62.53 49.08h42.73v44.54H62.53z" style="fill:#fafafa"/><path d="M62.53 93.91a7 7 0 0 1-1.05 1.23c-.69.72-1.65 1.69-2.72 2.75s-2.06 2-2.79 2.68a6.7 6.7 0 0 1-1.24 1 7.8 7.8 0 0 1 1.05-1.22c.68-.72 1.65-1.69 2.72-2.76s2.07-2 2.8-2.67a7 7 0 0 1 1.23-1.01m42.73-.11a7.7 7.7 0 0 1 1.22 1.06c.72.68 1.7 1.64 2.76 2.72s2 2.06 2.67 2.79a7.3 7.3 0 0 1 1 1.23 6.2 6.2 0 0 1-1.22-1c-.72-.68-1.7-1.64-2.76-2.72s-2-2.07-2.68-2.8a6 6 0 0 1-.99-1.28m-.12-44.6a7 7 0 0 1 1-1.23c.69-.72 1.65-1.69 2.72-2.75s2.06-2 2.79-2.67a6.5 6.5 0 0 1 1.24-1 7.8 7.8 0 0 1-1 1.22 127 127 0 0 1-5.52 5.43 7 7 0 0 1-1.23 1m-42.73.11a7.7 7.7 0 0 1-1.22-1.06c-.72-.68-1.7-1.64-2.76-2.71s-2-2.07-2.67-2.8a6.8 6.8 0 0 1-1-1.23A6.7 6.7 0 0 1 56 42.56c.72.68 1.7 1.64 2.76 2.72s2 2.07 2.68 2.8a6.3 6.3 0 0 1 .97 1.23" style="fill:#e0e0e0"/><path d="M105.14 93.62V81.3c0-7.8 0-18.92-.08-32.22l.16.16H62.61l.19-.19v44.54l-.16-.16 30.85.08h11.55a.7.7 0 0 1 .21 0H93.6l-31 .08h-.16V48.7h42.97v.17c0 13.35-.07 24.5-.09 32.32v11.98a1.6 1.6 0 0 1-.18.45" style="fill:#e0e0e0"/><path d="M76.76 64.22h14.26v14.26H76.76z" style="fill:#ebebeb"/><path d="M484.44 468c0 .14-105 .26-234.43.26s-234.45-.15-234.45-.26 105-.26 234.45-.26 234.43.08 234.43.26" style="fill:#263238"/><path d="M170 228.35h120.65a7.24 7.24 0 0 1 7.24 7.24v110.27a8.48 8.48 0 0 1-8.48 8.48h-119a7.55 7.55 0 0 1-7.55-7.55V235.51a7.16 7.16 0 0 1 7.14-7.16" style="fill:#fff"/><path d="M162.81 248.8h68.32v68.32h-68.32z" style="fill:#f5f5f5"/><path d="M170 228.35h120.65a7.24 7.24 0 0 1 7.24 7.24v13.21H162.81v-13.29a7.16 7.16 0 0 1 7.19-7.16" style="fill:#67298c"/><path d="M175 238.94a2.55 2.55 0 1 1-2.55-2.55 2.56 2.56 0 0 1 2.55 2.55m7.72 0a2.55 2.55 0 1 1-2.55-2.55 2.55 2.55 0 0 1 2.55 2.55m7.71 0a2.55 2.55 0 1 1-2.55-2.55 2.55 2.55 0 0 1 2.55 2.55" style="fill:#fff"/><path d="M284.41 270.54c0 .14-9.84.26-22 .26s-22-.12-22-.26 9.84-.26 22-.26 22 .11 22 .26m0 6.62c0 .15-9.84.26-22 .26s-22-.11-22-.26 9.84-.26 22-.26 22 .1 22 .26m0 6.63c0 .14-9.84.26-22 .26s-22-.12-22-.26 9.84-.26 22-.26 22 .12 22 .26m0 13.73c0 .14-9.84.26-22 .26s-22-.12-22-.26 9.84-.26 22-.26 22 .11 22 .26m-19.04 6.62c0 .15-5.58.26-12.47.26s-12.47-.11-12.47-.26 5.58-.26 12.47-.26 12.47.12 12.47.26" style="fill:#263238"/><path d="M260.66 290.41a95 95 0 0 1-10.12.27 95 95 0 0 1-10.11-.27 100 100 0 0 1 10.11-.26 100 100 0 0 1 10.12.26m0-28a100 100 0 0 1-10.12.26 100 100 0 0 1-10.11-.26 96 96 0 0 1 10.11-.26 97 97 0 0 1 10.12.26" style="fill:#67298c"/><path d="M195.09 256a3.1 3.1 0 0 1 3.19-1.62 4.22 4.22 0 0 1 5.19 0 3.75 3.75 0 0 1 5.71 3 3.14 3.14 0 0 1 2.81 5.25 3 3 0 0 1-1.18 5.88l-15.1-9a3.08 3.08 0 0 1-.62-3.51" style="fill:#e0e0e0"/><path d="M211.25 268.88a12.78 12.78 0 0 0-12.91-11.57h-.67c-7.13.52-10.67 6.87-9.95 14l1.38 23.76.28 4.21 16.7 1.6-.49-7.66s6.84-1.16 6.83-8c-.01-3.34-.58-10.17-1.17-16.34" style="fill:#ffbe9d"/><path d="M205.64 293.21a16.6 16.6 0 0 1-9-2.5s2.19 4.91 9 4.19Z" style="fill:#eb996e"/><path d="M208.87 275.24a1 1 0 0 1-.93 1 .93.93 0 0 1-1-.87 1 1 0 0 1 .93-1 .93.93 0 0 1 1 .87m.96-2.98c-.12.13-.87-.41-1.93-.39s-1.82.56-1.93.43.06-.29.39-.54a2.7 2.7 0 0 1 1.55-.5 2.6 2.6 0 0 1 1.54.47c.32.27.44.47.38.53m-10.9 3.23a1 1 0 0 1-.93 1 .94.94 0 0 1-1-.86 1 1 0 0 1 .93-1 1 1 0 0 1 1 .86m.53-2.88c-.12.13-.87-.41-1.92-.39s-1.82.56-1.94.43.07-.29.4-.54a2.64 2.64 0 0 1 1.55-.5 2.5 2.5 0 0 1 1.53.47c.33.24.44.47.38.53m3.94 7.76a7.2 7.2 0 0 1 1.71-.33c.27 0 .53-.09.57-.27a1.4 1.4 0 0 0-.19-.8c-.27-.65-.54-1.33-.83-2a36.5 36.5 0 0 1-1.87-5.33 34.4 34.4 0 0 1 2.3 5.17c.27.72.54 1.4.79 2.05a1.5 1.5 0 0 1 .15 1.06.68.68 0 0 1-.43.4 2 2 0 0 1-.46.07 6.8 6.8 0 0 1-1.74-.02m-3.09.78c.17 0 .19 1.13 1.18 1.93s2.21.65 2.22.81-.27.23-.78.25a2.84 2.84 0 0 1-1.85-.61 2.48 2.48 0 0 1-.92-1.62c-.05-.48.07-.77.15-.76" style="fill:#263238"/><path d="M199.68 268.47c-.1.29-1.16.17-2.39.34s-2.23.52-2.4.26.09-.39.49-.68a4.15 4.15 0 0 1 1.77-.65 4 4 0 0 1 1.88.2c.46.17.69.4.65.53m9.72.75c-.19.24-.92 0-1.79 0s-1.61.19-1.79-.06 0-.37.36-.6a2.6 2.6 0 0 1 2.88.05c.31.24.42.49.34.61" style="fill:#e0e0e0"/><path d="M210.55 265.75s-1.87-4.28-4-5.25c-2.53-1.18-3.57 1.59-6 1s-4.81-1.76-7.23.12c-2.64 2.06-1.37 3.46-1.49 6.51-.49 12.35-2.69 15.88-3.42 10.07-.08-.63-1.85-1.11-2.16-3.8-.39-3.49-.58-7.72.16-10.21a9.8 9.8 0 0 1 3.91-5.18c3.33-2.56 8-2.68 11.11-2.41s9.33 3.76 9.12 9.15" style="fill:#e0e0e0"/><path d="M188.92 278a1.87 1.87 0 0 0-2-1.77c-1.28.14-2.69.89-2.57 3.53.22 4.69 4.88 3.51 4.88 3.37s-.23-3.2-.31-5.13" style="fill:#ffbe9d"/><path d="M188.09 281.39s-.08.06-.21.13a.87.87 0 0 1-.61 0 2 2 0 0 1-1-1.77 2.5 2.5 0 0 1 .17-1.18 1 1 0 0 1 .56-.57.42.42 0 0 1 .49.2c.07.13 0 .23.07.23s.09-.08.05-.27a.63.63 0 0 0-.2-.29.7.7 0 0 0-.46-.1 1.17 1.17 0 0 0-.82.77 2.7 2.7 0 0 0-.22 1.32 2.1 2.1 0 0 0 1.29 2 .87.87 0 0 0 .74-.16c.15-.2.17-.31.15-.31" style="fill:#eb996e"/><path d="M188.87 268.88a4.55 4.55 0 0 0 2 .89 1.55 1.55 0 0 0 1.68-1.1c.05-.33 0-.71.17-1s.73-.22 1.12-.19a3 3 0 0 0 3.08-2.19 1.26 1.26 0 0 0 1.69.14 7 7 0 0 0 1.26-1.39 1.91 1.91 0 0 1 1.6-.83 4 4 0 0 0 1 .21c.61-.06.9-.79 1-1.4s.15-1.33.66-1.67a2.53 2.53 0 0 1 1.68-.07c.57.08 1.3-.07 1.44-.62a1.1 1.1 0 0 0-.23-.85 3 3 0 0 0-3.6-1.1 4.12 4.12 0 0 0-7.58-.69 4.19 4.19 0 0 0-6.66 1.62 3 3 0 0 0-3.35 4.46 2.85 2.85 0 0 0-1.55 2.31 1.65 1.65 0 0 0 1.89 1.66 1.68 1.68 0 0 0 2.93 1.63" style="fill:#e0e0e0"/><path d="M185.85 267.1a1.12 1.12 0 0 0 .3.9 1.5 1.5 0 0 0 .95.55 1.65 1.65 0 0 0 1.33-.41h-.2a4.7 4.7 0 0 0 1 1.16 2.7 2.7 0 0 0 .86.52 1.8 1.8 0 0 0 .94.07 1.86 1.86 0 0 0 1.35-.79 2.7 2.7 0 0 0 .36-1c.05-.24.05-.37 0-.37s0 .12-.13.35a3.1 3.1 0 0 1-.42.9 1.91 1.91 0 0 1-2.82.1 4.8 4.8 0 0 1-.91-1.08l-.08-.14-.12.11a1.39 1.39 0 0 1-2-.05 2.3 2.3 0 0 1-.41-.82m8.71-10.84s.12 0 .33.12a1.56 1.56 0 0 1 .74.61l.05.08.07-.08a5.7 5.7 0 0 1 2.24-1.87 4.6 4.6 0 0 1 1.84-.44 3.86 3.86 0 0 1 2 .54 4 4 0 0 1 1.2 1.11 3.1 3.1 0 0 1 .53 1.4v.15h.14a2.59 2.59 0 0 1 3 1.34 3.5 3.5 0 0 1 .31 1.38.9.9 0 0 0 .05-.38 2.5 2.5 0 0 0-.23-1.07 2.56 2.56 0 0 0-1.12-1.24 2.8 2.8 0 0 0-2.12-.27l.16.11a3.3 3.3 0 0 0-.57-1.53 4.1 4.1 0 0 0-3.41-1.76 4.8 4.8 0 0 0-1.94.48 5.67 5.67 0 0 0-2.26 2h.12a1.64 1.64 0 0 0-.83-.6.8.8 0 0 0-.3-.08" style="fill:#fff"/><path d="M198.71 281.86a3.4 3.4 0 0 1 .49-.91c.38-.43.87-.5.86-.57s-.13-.07-.34 0a1.34 1.34 0 0 0-.72.41 1.4 1.4 0 0 0-.35.75c-.02.19.03.32.06.32m-.44-1.29c.07 0 .24-.13.49-.25s.47-.15.48-.22-.28-.18-.6 0-.43.44-.37.47m-5.44 11.05s-.07 0-.13-.12a.41.41 0 0 1 0-.41c.07-.18.28-.34.42-.65a.6.6 0 0 0 0-.54 4 4 0 0 0-.31-.4c-.36-.46.69-.79.55-1.39a.7.7 0 0 0-.26-.5c-.1-.08-.18-.09-.19-.07a.88.88 0 0 1 .26.58c0 .2-.11.37-.34.56a1 1 0 0 0-.31.39.57.57 0 0 0 .07.59c.11.15.24.26.3.37a.36.36 0 0 1 0 .32c-.09.23-.29.43-.37.67a.52.52 0 0 0 .12.56c.1.09.19.06.19.04m-1.45-.2s0-.07.05-.17a2 2 0 0 1 .26-.4 1.6 1.6 0 0 0 .2-.3.64.64 0 0 0 .06-.46c-.08-.33-.36-.54-.49-.79s0-.44.18-.64a1.7 1.7 0 0 0 .25-.35.9.9 0 0 0 .07-.38c-.05-.49-.38-.63-.38-.6a1.24 1.24 0 0 1 .19.6.84.84 0 0 1-.31.56 1.2 1.2 0 0 0-.29.38.67.67 0 0 0 .05.57c.19.31.44.49.49.71s-.07.42-.18.6a1.2 1.2 0 0 0-.2.48c-.01.13.03.19.05.19" style="fill:#eb996e"/><path d="M221 304.14c-1.81-1.2-15.14-7.35-15.14-7.35-5.39 1.31-11.11.86-17.08-.87 0 0-14.09 4.91-16.26 6.48-1.71 1.23-5.38 15-5.38 15l59.59-.23s-3.98-11.82-5.73-13.03" style="fill:#67298c"/><path d="M179.77 317.31a17.2 17.2 0 0 1-.45-4.13 16.3 16.3 0 0 1 .08-4.15 17 17 0 0 1 .44 4.13 16.7 16.7 0 0 1-.07 4.15m37.38-.98a20.7 20.7 0 0 1-.38-7.9 56 56 0 0 1 .38 7.9" style="fill:#263238"/><path d="M162.59 317.12h135.3v28.74a8.48 8.48 0 0 1-8.48 8.48H170.15a7.55 7.55 0 0 1-7.55-7.55v-29.67z" style="fill:#ebebeb"/><path d="M185.76 327.27a49.6 49.6 0 0 1-7.25.26 50 50 0 0 1-7.26-.26 52 52 0 0 1 7.26-.26 51 51 0 0 1 7.25.26m31.24 5.3c0 .14-10.29.26-23 .26s-23-.12-23-.26 10.28-.26 23-.26 23 .11 23 .26m0 5.96c0 .15-10.29.26-23 .26s-23-.11-23-.26 10.28-.26 23-.26 23 .12 23 .26m-13.76 5.97c0 .15-7.2.26-16.07.26s-16.06-.11-16.06-.26 7.19-.26 16.06-.26 16.07.12 16.07.26m49.97-17.23a50 50 0 0 1-7.26.26 49.6 49.6 0 0 1-7.25-.26 51 51 0 0 1 7.3-.27 52 52 0 0 1 7.21.27m31.27 5.3c0 .14-10.28.26-23 .26s-23-.12-23-.26 10.28-.26 23-.26 23 .11 23 .26m0 5.96c0 .15-10.28.26-23 .26s-23-.11-23-.26 10.28-.26 23-.26 23 .12 23 .26m-13.8 5.97c0 .15-7.19.26-16.06.26s-16.07-.11-16.07-.26 7.19-.26 16.07-.26 16.06.12 16.06.26" style="fill:#263238"/><path d="M289.41 354.34s.45 0 1.31-.14a8.45 8.45 0 0 0 6.89-6.51 18.8 18.8 0 0 0 .19-4v-4.55c0-12.89-.05-31.53-.08-54.55v-48a11 11 0 0 0-.18-2.57 6.8 6.8 0 0 0-1-2.35 7 7 0 0 0-4.16-2.91 10 10 0 0 0-2.65-.21H171.09a9.8 9.8 0 0 0-3.18.31 7 7 0 0 0-4.84 7.33v110.92a7.3 7.3 0 0 0 .58 2.52 7.4 7.4 0 0 0 3.46 3.65 7.3 7.3 0 0 0 2.41.72c.83.08 1.71.05 2.57.06h42.79l54.54.08h20-5.17l-14.83.05-54.54.08h-42.79a26 26 0 0 1-2.62-.05 7.4 7.4 0 0 1-2.56-.77 7.8 7.8 0 0 1-3.67-3.86 7.5 7.5 0 0 1-.62-2.67c-.05-.92 0-1.8 0-2.71V236.25a7.71 7.71 0 0 1 2.3-6.1 7.5 7.5 0 0 1 2.9-1.72 10.3 10.3 0 0 1 3.34-.34h118.59a10.8 10.8 0 0 1 2.76.22 7.46 7.46 0 0 1 4.42 3.11 7.1 7.1 0 0 1 1.07 2.5 11.5 11.5 0 0 1 .18 2.67v48.08c0 23-.07 41.66-.09 54.55v4.55a18.6 18.6 0 0 1-.22 4 8.54 8.54 0 0 1-3.46 5.11 8.4 8.4 0 0 1-3.57 1.41 6 6 0 0 1-1 .08Z" style="fill:#263238"/><path d="M49.22 145.26H169.9a7.24 7.24 0 0 1 7.24 7.24v110.27a8.48 8.48 0 0 1-8.48 8.48h-119a7.55 7.55 0 0 1-7.55-7.55V152.43a7.16 7.16 0 0 1 7.11-7.17" style="fill:#fff"/><path d="M42.06 165.71h68.32v68.32H42.06z" style="fill:#f5f5f5"/><path d="M49.22 145.26H169.9a7.24 7.24 0 0 1 7.24 7.24v13.21H42.06v-13.28a7.16 7.16 0 0 1 7.16-7.17" style="fill:#67298c"/><path d="M54.26 155.85a2.55 2.55 0 1 1-2.54-2.55 2.55 2.55 0 0 1 2.54 2.55m7.74 0a2.55 2.55 0 1 1-2.55-2.55 2.55 2.55 0 0 1 2.55 2.55" style="fill:#fff"/><circle cx="67.13" cy="155.85" r="2.55" style="fill:#fff"/><path d="M163.66 187.45c0 .15-9.85.26-22 .26s-22-.11-22-.26 9.84-.26 22-.26 22 .12 22 .26m0 6.63c0 .14-9.85.26-22 .26s-22-.12-22-.26 9.84-.26 22-.26 22 .11 22 .26m0 6.62c0 .15-9.85.26-22 .26s-22-.11-22-.26 9.84-.26 22-.26 22 .12 22 .26m0 13.73c0 .15-9.85.26-22 .26s-22-.11-22-.26 9.84-.26 22-.26 22 .12 22 .26m-19.04 6.63c0 .14-5.59.26-12.47.26s-12.47-.12-12.47-.26 5.58-.26 12.47-.26 12.47.11 12.47.26" style="fill:#263238"/><path d="M139.91 207.33a100 100 0 0 1-10.12.26 100 100 0 0 1-10.11-.26 100 100 0 0 1 10.11-.26 100 100 0 0 1 10.12.26m0-28.01a97 97 0 0 1-10.12.26 96 96 0 0 1-10.11-.26 100 100 0 0 1 10.11-.26 100 100 0 0 1 10.12.26" style="fill:#67298c"/><path d="m61.23 211.75 6.8-.56s3.75 4.94 8.85 4.56 5.65-3.81 5.65-3.81 9.1 1.75 14 7l.11.14 6.54 15h-45.1Z" style="fill:#455a64"/><path d="M61.36 211.71a20.3 20.3 0 0 0-5.69 1.83c-4.8 2.83-9 20.49-9 20.49h13.4a52.6 52.6 0 0 0 5.26-10.41c.36-1.12-.47-6.75-.46-6.7s-3.51-5.1-3.51-5.21" style="fill:#455a64"/><path d="M93.72 231.54c-.11 0-.11-1.1-.42-2.38s-.77-2.27-.68-2.32a5.2 5.2 0 0 1 1 2.24 4.8 4.8 0 0 1 .1 2.46m-33.64 1.74a15 15 0 0 1 .33-1.85c.22-1.14.48-2.71.64-4.47s.18-3.35.19-4.51a12 12 0 0 1 0-1.87 8.6 8.6 0 0 1 .19 1.87 34 34 0 0 1-.09 4.54 31 31 0 0 1-.74 4.49 8.6 8.6 0 0 1-.52 1.8" style="fill:#263238"/><path d="M41.84 234h135.3v28.74a8.48 8.48 0 0 1-8.48 8.48H49.39a7.55 7.55 0 0 1-7.55-7.55z" style="fill:#ebebeb"/><path d="M65 244.19a51.5 51.5 0 0 1-7.25.26 52 52 0 0 1-7.26-.26 52 52 0 0 1 7.26-.26 51.5 51.5 0 0 1 7.25.26m31.28 5.29c0 .15-10.28.26-23 .26s-23-.11-23-.26 10.28-.26 23-.26 23 .12 23 .26m0 5.97c0 .14-10.28.26-23 .26s-23-.12-23-.26 10.28-.26 23-.26 23 .12 23 .26m-13.8 5.97c0 .14-7.19.26-16.06.26s-16.07-.12-16.07-.26 7.2-.26 16.07-.26 16.06.11 16.06.26m49.98-17.23a52 52 0 0 1-7.26.26 52 52 0 0 1-7.26-.26 52 52 0 0 1 7.26-.26 52 52 0 0 1 7.26.26m31.27 5.29c0 .15-10.28.26-23 .26s-23-.11-23-.26 10.28-.26 23-.26 23 .12 23 .26m0 5.97c0 .14-10.28.26-23 .26s-23-.12-23-.26 10.28-.26 23-.26 23 .12 23 .26m-13.8 5.97c0 .14-7.2.26-16.07.26s-16.06-.12-16.06-.26 7.19-.26 16.06-.26 16.07.11 16.07.26" style="fill:#263238"/><path d="M168.66 271.25s.45 0 1.31-.14a8.43 8.43 0 0 0 6.88-6.5 18 18 0 0 0 .2-4v-4.56c0-12.89 0-31.52-.08-54.55v-47.96a11 11 0 0 0-.18-2.57 6.8 6.8 0 0 0-1-2.36 7.08 7.08 0 0 0-4.17-2.91 10.4 10.4 0 0 0-2.64-.21H50.34a9.8 9.8 0 0 0-3.18.32 6.9 6.9 0 0 0-2.7 1.6 7.16 7.16 0 0 0-2.14 5.73v110.92a7.2 7.2 0 0 0 .58 2.51 7.36 7.36 0 0 0 3.46 3.65 7 7 0 0 0 2.41.73c.83.08 1.71 0 2.57 0h42.79l54.54.08 14.83.05h5.17-5.17l-14.83.05-54.54.08h-42.8c-.87 0-1.72 0-2.62-.06a7.4 7.4 0 0 1-2.56-.76 7.71 7.71 0 0 1-4.3-6.54V153.17a7.71 7.71 0 0 1 2.3-6.11 7.64 7.64 0 0 1 2.9-1.72 10.3 10.3 0 0 1 3.34-.34h118.59a10.7 10.7 0 0 1 2.75.23 7.43 7.43 0 0 1 5.5 5.61 11.5 11.5 0 0 1 .18 2.67v47.99c0 23-.06 41.66-.08 54.55v4.56a18.4 18.4 0 0 1-.22 4 8.56 8.56 0 0 1-3.46 5.12 8.5 8.5 0 0 1-3.57 1.41 7.5 7.5 0 0 1-1 .08Z" style="fill:#263238"/><path d="M64.69 178.7a16.75 16.75 0 0 1 12.94-6.43c2.94 0 4.15.56 6.27 1.13a9.3 9.3 0 0 1 5.28 3.49 15.6 15.6 0 0 1 3 7.09 43.5 43.5 0 0 1 .38 8 14.56 14.56 0 0 1-2.5 7.5l-6.78 1.17a42.7 42.7 0 0 1-11.19-.6c-3.65-.85-7.2-2.81-9.16-6-2.66-4.46-1.53-11.33 1.76-15.35" style="fill:#263238"/><path d="M88.06 203.27s.11.17.41.36a3.5 3.5 0 0 0 1.39.47 3.7 3.7 0 0 0 2.16-.44 3.62 3.62 0 0 0 1.31-4.82 3.6 3.6 0 0 0-1.65-1.46 3.26 3.26 0 0 0-1.44-.29 1 1 0 0 0-.53.1 5 5 0 0 1 1.85.45A3.47 3.47 0 0 1 93 199a3.2 3.2 0 0 1 .25 2.38 3.24 3.24 0 0 1-1.42 1.93 3.45 3.45 0 0 1-1.94.47 5.1 5.1 0 0 1-1.83-.51" style="fill:#e0e0e0"/><path d="M58.12 198.35a5 5 0 0 1 2.3-3.81 3.65 3.65 0 0 1 4.28.37l1.06 1.27a4.35 4.35 0 0 1 2.52 4.4A4.78 4.78 0 0 1 65 204.5a5.31 5.31 0 0 1-5.06-1.22 5.92 5.92 0 0 1-1.82-4.93" style="fill:#263238"/><path d="M59.46 202.91a2.23 2.23 0 0 1-.36-1.34 6.2 6.2 0 0 1 1.55-3 9.1 9.1 0 0 1 2.72-2.17c.79-.43 1.34-.58 1.32-.64a3.9 3.9 0 0 0-1.42.43 8.3 8.3 0 0 0-4 3.83 3.8 3.8 0 0 0-.44 1.59 1.9 1.9 0 0 0 .31 1.07c.18.17.31.25.32.23m3.29 2A11.9 11.9 0 0 1 65 196.4a3.6 3.6 0 0 0-.9 1 9.3 9.3 0 0 0-1.35 3 9.1 9.1 0 0 0-.27 3.24 3.4 3.4 0 0 0 .27 1.27" style="fill:#455a64"/><path d="M83.27 213.59v-6.28s5.53-.61 7.06-7.68c.76-3.52.9-9.35.86-14.12 0-4.3-3.7-10.15-9-10.17l-2.37-.27-9 3.58a2.52 2.52 0 0 0-2.39 2.43l-.27 30.21 15.11 21.18.09-18.88Z" style="fill:#b56760"/><path d="M79.66 198a1.5 1.5 0 0 1 .52-.93 1.55 1.55 0 0 1 1.87-.11 2.09 2.09 0 0 1 .79 1.94 1.9 1.9 0 0 1-1.35.78h-.25a1.7 1.7 0 0 1-1.14-.45 1.51 1.51 0 0 1-.44-1.23" style="fill:#8a4a43"/><path d="M88.17 190.43a.92.92 0 0 1-.94.88.88.88 0 0 1-.9-.88.92.92 0 0 1 .94-.87.87.87 0 0 1 .9.87m1.22-2.28c-.12.12-.78-.43-1.77-.48s-1.74.4-1.84.27.08-.26.41-.48a2.5 2.5 0 0 1 1.48-.36 2.4 2.4 0 0 1 1.4.53c.29.25.38.47.32.52m-6.2 7.47a6.3 6.3 0 0 1 1.62-.2c.25 0 .49 0 .55-.22a1.27 1.27 0 0 0-.13-.76c-.2-.62-.42-1.27-.64-1.95a33 33 0 0 1-1.4-5.1 33.4 33.4 0 0 1 1.81 5c.21.69.41 1.34.61 2a1.44 1.44 0 0 1 .07 1 .64.64 0 0 1-.43.35 1.7 1.7 0 0 1-.43 0 7 7 0 0 1-1.63-.12" style="fill:#263238"/><path d="M83.23 207.31a18.3 18.3 0 0 1-9.44-3.08s2.28 5.09 9.48 4.82Z" style="fill:#8a4a43"/><path d="M80.25 196.14c.16 0 .1 1.07 1 1.88s2 .75 2 .9-.27.19-.75.18a2.7 2.7 0 0 1-1.69-.69 2.33 2.33 0 0 1-.75-1.57c-.06-.45.12-.71.19-.7m8.95-11.7c-.18.23-.93 0-1.82.06s-1.63.21-1.81 0 0-.34.35-.57a2.7 2.7 0 0 1 1.46-.43 2.67 2.67 0 0 1 1.46.4c.32.2.44.43.36.54m-12.09 5.93a.93.93 0 0 0 .87.94.88.88 0 0 0 1-.81.91.91 0 0 0-.86-.94.89.89 0 0 0-1.01.81m-1.24-2.57c.11.12.81-.38 1.8-.36s1.71.53 1.82.41-.06-.27-.37-.51a2.6 2.6 0 0 0-1.45-.47 2.37 2.37 0 0 0-1.44.44c-.31.22-.42.44-.36.49m-.57-2.12c.19.23 1 0 1.87 0s1.7.18 1.88 0 0-.34-.38-.56a2.75 2.75 0 0 0-1.51-.39 2.8 2.8 0 0 0-1.51.42c-.32.2-.43.42-.35.53" style="fill:#263238"/><path d="M69.57 193.07c0-.53-.52-1.82-1-1.93-1.39-.3-3.93-.32-4.15 3.24-.3 4.86 4.65 4.16 4.67 4s.38-3.48.48-5.31" style="fill:#b56760"/><path d="M67.82 196.54s-.09.05-.24.11a.8.8 0 0 1-.64 0 2.1 2.1 0 0 1-.85-1.94 2.65 2.65 0 0 1 .31-1.19 1 1 0 0 1 .68-.62.45.45 0 0 1 .49.27c.05.14 0 .23 0 .24s.11-.07.08-.28a.5.5 0 0 0-.17-.31.7.7 0 0 0-.46-.16 1.2 1.2 0 0 0-.93.7 2.8 2.8 0 0 0-.38 1.34 2.22 2.22 0 0 0 1.11 2.18.93.93 0 0 0 .78-.08c.2-.14.23-.25.22-.26" style="fill:#8a4a43"/><path d="m68.33 191.15 1.24 1.29c5.35-5.11 15.8-17.9 15.21-17.14a15.65 15.65 0 0 0-7.64-.83c-4 .68-11.52 2.66-11.4 7.34a24.5 24.5 0 0 0 2.59 9.34" style="fill:#263238"/><path d="M68.44 203.27s-.11.17-.4.36a3.5 3.5 0 0 1-1.4.47 3.7 3.7 0 0 1-2.16-.44 3.6 3.6 0 0 1-1.3-4.82 3.63 3.63 0 0 1 1.64-1.46 3.3 3.3 0 0 1 1.45-.29 1 1 0 0 1 .53.1 5 5 0 0 0-1.85.45A3.5 3.5 0 0 0 63.5 199a3.25 3.25 0 0 0-.25 2.38 3.28 3.28 0 0 0 1.42 1.93 3.5 3.5 0 0 0 2 .47 5 5 0 0 0 1.77-.51" style="fill:#e0e0e0"/><path d="M61.25 190.08a.9.9 0 0 1 .07-.28 5 5 0 0 1 .33-.77 7.1 7.1 0 0 1 2-2.29 13.3 13.3 0 0 1 4.1-2c1.63-.53 3.47-.95 5.28-1.72a23.7 23.7 0 0 0 4.81-2.69 24.5 24.5 0 0 0 3.4-3 28 28 0 0 0 2-2.32l.48-.67a1.3 1.3 0 0 1 .19-.23 1.2 1.2 0 0 1-.14.25c-.11.16-.25.41-.46.7a20.6 20.6 0 0 1-1.91 2.39 23.15 23.15 0 0 1-8.25 5.77 54 54 0 0 1-5.3 1.7 13.5 13.5 0 0 0-4.06 1.9 7.1 7.1 0 0 0-2.06 2.19c-.35.69-.46 1.08-.48 1.07" style="fill:#455a64"/><path d="M62.67 190.85a2.6 2.6 0 0 1 .18-1.07 5 5 0 0 1 1.84-2.29 11.1 11.1 0 0 1 4.06-1.59 23.6 23.6 0 0 0 5.06-1.6 21.4 21.4 0 0 0 7.59-5.81 22 22 0 0 0 1.73-2.36l.41-.68a2 2 0 0 1 .16-.23s0 .09-.12.26l-.37.7a20.4 20.4 0 0 1-1.67 2.43 20.8 20.8 0 0 1-3.08 3.09 21 21 0 0 1-4.55 2.83 24 24 0 0 1-5.1 1.6 11.1 11.1 0 0 0-4 1.51 4.94 4.94 0 0 0-1.81 2.18 4.5 4.5 0 0 0-.33 1.03" style="fill:#455a64"/><path d="M155.67 50.9h120.67a7.24 7.24 0 0 1 7.24 7.24v110.27a8.48 8.48 0 0 1-8.48 8.48h-119a7.55 7.55 0 0 1-7.55-7.55V58.06a7.16 7.16 0 0 1 7.12-7.16" style="fill:#fff"/><path d="M148.5 71.35h68.32v68.32H148.5z" style="fill:#f5f5f5"/><path d="M155.67 50.9h120.67a7.24 7.24 0 0 1 7.24 7.24v13.21H148.5V58.06a7.16 7.16 0 0 1 7.17-7.16" style="fill:#67298c"/><path d="M160.71 61.49a2.55 2.55 0 1 1-2.55-2.55 2.55 2.55 0 0 1 2.55 2.55m7.7 0a2.55 2.55 0 1 1-2.55-2.55 2.55 2.55 0 0 1 2.55 2.55m7.71 0a2.55 2.55 0 1 1-2.55-2.55 2.55 2.55 0 0 1 2.55 2.55" style="fill:#fff"/><path d="M270.1 93.09c0 .14-9.85.26-22 .26s-22-.12-22-.26 9.84-.26 22-.26 22 .11 22 .26m0 6.62c0 .15-9.85.26-22 .26s-22-.11-22-.26 9.84-.26 22-.26 22 .12 22 .26m0 6.63c0 .14-9.85.26-22 .26s-22-.12-22-.26 9.84-.26 22-.26 22 .11 22 .26m0 13.73c0 .14-9.85.26-22 .26s-22-.12-22-.26 9.84-.26 22-.26 22 .11 22 .26m-19.04 6.62c0 .15-5.58.26-12.47.26s-12.47-.11-12.47-.26 5.58-.26 12.47-.26 12.47.12 12.47.26" style="fill:#263238"/><path d="M246.35 113a97 97 0 0 1-10.12.26 96 96 0 0 1-10.11-.26 100 100 0 0 1 10.11-.26 100 100 0 0 1 10.12.26m0-28a100 100 0 0 1-10.12.26 100 100 0 0 1-10.11-.26 96 96 0 0 1 10.11-.26 97 97 0 0 1 10.12.26" style="fill:#67298c"/><path d="M193.5 86.33A9 9 0 0 0 189 81a11.4 11.4 0 0 0-7.66-.7 24.2 24.2 0 0 0-7.13 3.19 11.7 11.7 0 0 0-3.37 2.79 16.66 16.66 0 0 0-3.24 8.31 29.6 29.6 0 0 0 1.88 9.49 4.8 4.8 0 0 0 2.13 1.81 18.3 18.3 0 0 0 4.06 5.07l1.38-4.4Z" style="fill:#263238"/><path d="m192.18 83.7-4.28-.64c2.48 5.48 3.48 18.15 5 24 1.5-2.32 5-9.36 4.68-12.12s-.35-11.85-5.4-11.24" style="fill:#263238"/><path d="M172.25 93.51a7.27 7.27 0 0 1 5.28-6.86l9.74-2.78c4.22-.58 7.2 4.56 7.6 8.8.45 4.72.78 9.71.33 13.25-.91 7.13-6.32 8.2-6.32 8.2s.09 3.37.15 5.44l-1.59 9.29-12.84-11-2.38-24.25c0-.12.02.07.03-.09" style="fill:#ffbe9d"/><path d="M192.67 98.23a.91.91 0 0 1-.85 1 .87.87 0 0 1-1-.8.91.91 0 0 1 .85-.94.87.87 0 0 1 1 .74m1.22-2.75c-.11.13-.82-.36-1.8-.33s-1.68.54-1.79.43.06-.27.36-.51a2.5 2.5 0 0 1 1.43-.49 2.43 2.43 0 0 1 1.43.42c.31.22.42.43.37.48m-9.98 2.99a.91.91 0 0 1-.85.94.87.87 0 0 1-1-.79.91.91 0 0 1 .85-.94.86.86 0 0 1 1 .79m.68-2.72c-.11.12-.82-.37-1.79-.33s-1.69.54-1.79.42.05-.27.36-.5a2.5 2.5 0 0 1 2.86-.08c.3.22.41.43.36.49m3.28 7.6a6.8 6.8 0 0 1 1.58-.34c.25 0 .48-.09.52-.26a1.3 1.3 0 0 0-.19-.73c-.25-.6-.52-1.23-.8-1.88a32.4 32.4 0 0 1-1.81-4.93 32 32 0 0 1 2.21 4.77c.26.66.52 1.29.76 1.89a1.4 1.4 0 0 1 .16 1 .63.63 0 0 1-.4.38 1.8 1.8 0 0 1-.42.07 6.3 6.3 0 0 1-1.61.03" style="fill:#263238"/><path d="M179.4 111.86s2.45 4.81 9.52 3.93v-1.67a17.86 17.86 0 0 1-9.52-2.26" style="fill:#eb996e"/><path d="M184.18 92.22c-.09.27-1.07.17-2.21.35s-2.07.51-2.23.28.09-.37.45-.64a3.8 3.8 0 0 1 1.64-.63 3.9 3.9 0 0 1 1.74.15c.43.16.65.36.61.49m9.3.28c-.16.23-.85 0-1.66 0s-1.49.2-1.65 0 0-.34.32-.56a2.43 2.43 0 0 1 2.67 0c.29.22.39.45.32.56" style="fill:#263238"/><path d="M192.76 86.25a3.13 3.13 0 0 0-2.76-1.69 6.05 6.05 0 0 0-3.24 1c-4.16 2.56-6.16 8.52-10.26 11.17-1 .65-2.36.12-3.21 1a3 3 0 0 0-.87 3.26 9.8 9.8 0 0 1-1.51-2.41 3.35 3.35 0 0 1 0-2.77c.35-.63 1-1.13 1.13-1.83a10 10 0 0 0-.12-1.9 4 4 0 0 1 .6-1.83 18.4 18.4 0 0 1 6.57-7.33 12.1 12.1 0 0 1 6.18-1.78 9.13 9.13 0 0 1 6 2.18c1 .84 2 1.72 1.52 2.91" style="fill:#263238"/><path d="M173.36 98.62c-.08-.2-3.81-1.43-3.75 2.51s3.89 3 3.9 2.85-.15-5.36-.15-5.36" style="fill:#ffbe9d"/><path d="M172.3 102.55s-.06 0-.18.1a.66.66 0 0 1-.49 0 1.63 1.63 0 0 1-.79-1.46 2.3 2.3 0 0 1 .16-1 .78.78 0 0 1 .5-.52.33.33 0 0 1 .39.18c.06.1 0 .18.05.18s.08-.06.05-.22a.44.44 0 0 0-.15-.23.47.47 0 0 0-.37-.09.92.92 0 0 0-.69.6 2.3 2.3 0 0 0-.21 1.07 1.73 1.73 0 0 0 1 1.63.71.71 0 0 0 .61-.11c.12-.04.14-.12.12-.13" style="fill:#eb996e"/><path d="m171.79 96.7.23-.13c.14-.1.36-.23.62-.43a12.4 12.4 0 0 0 2-1.94 35 35 0 0 0 2.43-3.34 31 31 0 0 1 3-4 12.3 12.3 0 0 1 2-1.67 10 10 0 0 1 2.17-1.06 11 11 0 0 1 4-.61A10.5 10.5 0 0 1 191 84c.32.09.55.19.72.25l.25.08a1 1 0 0 0-.24-.12c-.16-.06-.39-.17-.71-.27a9.8 9.8 0 0 0-2.74-.51 10.7 10.7 0 0 0-4.09.58A10.2 10.2 0 0 0 182 85a11.4 11.4 0 0 0-2 1.69 29 29 0 0 0-3.05 4c-.86 1.29-1.64 2.45-2.39 3.36a15 15 0 0 1-2 2c-.25.2-.47.34-.6.45Z" style="fill:#fff"/><path d="M172.78 97.76a5.9 5.9 0 0 0 .46 3.06 2 2 0 0 0 2.64 1 2.87 2.87 0 0 0 1-2.24c.29-2.45.39-4.91.7-7.35Z" style="fill:#263238"/><path d="M191.77 84.46s-.34 0-1-.06a6.5 6.5 0 0 0-2.51.54 8 8 0 0 0-1.56.86 18 18 0 0 0-1.6 1.29 19.7 19.7 0 0 0-3.1 3.54c-.47.7-.88 1.41-1.32 2.07a9.6 9.6 0 0 1-1.49 1.77 16.4 16.4 0 0 1-3.16 2.25c-1 .55-1.77.93-2.33 1.2l-.65.3-.23.09a1 1 0 0 1 .22-.13l.62-.34c.55-.28 1.34-.69 2.29-1.25a17.7 17.7 0 0 0 3.11-2.26 10 10 0 0 0 1.44-1.74c.44-.66.85-1.37 1.32-2.08A19 19 0 0 1 185 87a17 17 0 0 1 1.63-1.3 8 8 0 0 1 1.6-.85 6.4 6.4 0 0 1 2.58-.48 4.5 4.5 0 0 1 .71.08Z" style="fill:#455a64"/><path d="m172.61 95.4-.33.24-1 .59-.32.2a1.1 1.1 0 0 1-.41.15.36.36 0 0 1-.26-.06.3.3 0 0 1-.15-.24.87.87 0 0 1 .17-.49c.32-.56.69-1.18 1.07-1.83l.15.13a3.9 3.9 0 0 1-1.21.65 3.8 3.8 0 0 1-1.36.2 1.1 1.1 0 0 1-.35 0 .46.46 0 0 1-.3-.25.42.42 0 0 1 .05-.38 1.4 1.4 0 0 1 .21-.25 8.6 8.6 0 0 0 1.26-1.68 14 14 0 0 0 .77-1.78 1.6 1.6 0 0 1-.1.52 8 8 0 0 1-.5 1.28 7.8 7.8 0 0 1-1.25 1.75c-.13.14-.27.3-.21.41s.27.18.47.17a3.9 3.9 0 0 0 1.29-.19 3.8 3.8 0 0 0 1.14-.61l.45-.35-.29.49-1.1 1.81a.77.77 0 0 0-.15.38c0 .11.1.17.23.16a2.1 2.1 0 0 0 .68-.31l1-.54a1.7 1.7 0 0 1 .35-.17" style="fill:#fff"/><path d="M184.2 105.26a1.28 1.28 0 0 1 1.29-1 1.36 1.36 0 0 1 1 .71 1.6 1.6 0 0 1 .09 1.27v.09a1.44 1.44 0 0 1-1.62.4 1.36 1.36 0 0 1-.76-1.47" style="fill:#eb996e"/><path d="M187.32 106.32c0-.14-1-.07-1.76-.86s-.74-1.85-.88-1.85-.17.25-.15.7a2.46 2.46 0 0 0 .68 1.54 2.16 2.16 0 0 0 1.47.67c.42 0 .66-.13.64-.2" style="fill:#263238"/><path d="M183.09 103.66c-.05 0-.1-.12-.08-.34a1.1 1.1 0 0 1 .45-.73 1.1 1.1 0 0 1 .83-.18c.22 0 .32.15.3.18s-.51 0-.94.27-.48.8-.56.8m-4.51-5.74c0-.09.27-.19.63-.12s.59.27.55.35-.31 0-.61 0-.56-.15-.57-.23m15.52.73c-.06-.07 0-.24.25-.27s.35.09.32.18-.15.12-.27.14a.33.33 0 0 1-.3-.05m-15.28-1.3c0-.09.26-.13.54 0s.41.34.35.41-.26 0-.49-.11-.41-.21-.4-.3" style="fill:#eb996e"/><path d="m167.67 117.39 6.8-.57s3.75 4.94 8.85 4.56 5.65-3.81 5.65-3.81 9.1 1.75 14 7l.11.15 6.54 15h-45.1Z" style="fill:#67298c"/><path d="M167.8 117.34a20 20 0 0 0-5.68 1.84c-4.81 2.82-9 20.49-9 20.49h13.38a52.5 52.5 0 0 0 5.26-10.42c.36-1.12-.46-6.74-.46-6.7s-3.5-5.1-3.5-5.21" style="fill:#67298c"/><path d="M200.16 137.17c-.1 0-.11-1.09-.42-2.38s-.77-2.27-.68-2.31a5.2 5.2 0 0 1 1 2.24 4.76 4.76 0 0 1 .1 2.45m-33.64 1.74a15 15 0 0 1 .34-1.85c.22-1.13.47-2.71.63-4.46s.19-3.36.19-4.51a12.4 12.4 0 0 1 0-1.88 8.7 8.7 0 0 1 .19 1.87 33 33 0 0 1-.09 4.55 30.6 30.6 0 0 1-.74 4.48 8.6 8.6 0 0 1-.52 1.8" style="fill:#263238"/><path d="M148.28 139.67h135.3v28.74a8.48 8.48 0 0 1-8.48 8.48H155.84a7.55 7.55 0 0 1-7.55-7.55v-29.67z" style="fill:#ebebeb"/><path d="M171.45 149.82a50 50 0 0 1-7.25.26 50 50 0 0 1-7.26-.26 52 52 0 0 1 7.26-.26 51.5 51.5 0 0 1 7.25.26m31.28 5.3c0 .14-10.29.26-23 .26s-23-.12-23-.26 10.28-.26 23-.26 23 .14 23 .26m0 5.96c0 .15-10.29.26-23 .26s-23-.11-23-.26 10.28-.26 23-.26 23 .12 23 .26m-13.81 5.97c0 .14-7.19.26-16.06.26s-16.06-.12-16.06-.26 7.19-.26 16.06-.26 16.06.12 16.06.26m49.98-17.23a50 50 0 0 1-7.26.26 50 50 0 0 1-7.26-.26 52 52 0 0 1 7.26-.26 52 52 0 0 1 7.26.26m31.27 5.3c0 .14-10.28.26-23 .26s-23-.12-23-.26 10.28-.26 23-.26 23 .14 23 .26m0 5.96c0 .15-10.28.26-23 .26s-23-.11-23-.26 10.28-.26 23-.26 23 .12 23 .26m-13.8 5.97c0 .14-7.19.26-16.06.26s-16.07-.12-16.07-.26 7.19-.26 16.07-.26 16.06.12 16.06.26" style="fill:#263238"/><path d="M275.1 176.88a13 13 0 0 0 1.31-.13 8.45 8.45 0 0 0 6.89-6.51 18.8 18.8 0 0 0 .19-4v-4.55c0-12.89-.05-31.53-.08-54.55V59.17a11 11 0 0 0-.18-2.57 6.8 6.8 0 0 0-1-2.35 7 7 0 0 0-4.23-2.91 10 10 0 0 0-2.65-.21H156.78a9.8 9.8 0 0 0-3.18.31 7.3 7.3 0 0 0-2.7 1.6 7.16 7.16 0 0 0-2.14 5.73v110.94a7.24 7.24 0 0 0 4 6.16 7.1 7.1 0 0 0 2.41.73c.83.08 1.71 0 2.57.06h42.79l54.54.08 14.83.05h5.17-5.17l-14.8.21-54.54.08h-45.41a7.4 7.4 0 0 1-2.56-.77 7.83 7.83 0 0 1-3.68-3.87 7.6 7.6 0 0 1-.61-2.66c-.05-.92 0-1.8 0-2.71V58.8a7.71 7.71 0 0 1 2.3-6.1 7.5 7.5 0 0 1 2.9-1.72 10.3 10.3 0 0 1 3.34-.34h118.59a10.7 10.7 0 0 1 2.75.22 7.45 7.45 0 0 1 4.37 3.14 7.1 7.1 0 0 1 1.07 2.5 11.5 11.5 0 0 1 .18 2.67v48c0 23-.06 41.66-.08 54.55v4.55a18.6 18.6 0 0 1-.22 4 8.5 8.5 0 0 1-7 6.52 6 6 0 0 1-1 .08Zm95.4-70.22a4.6 4.6 0 0 1-1.49-9 4.8 4.8 0 0 1 4.58-7.86 5.74 5.74 0 0 1 8.88-4.25 6.43 6.43 0 0 1 7.93.24 4.59 4.59 0 0 1 3.65 8" style="fill:#263238"/><path d="M369.8 107.28a19.55 19.55 0 0 1 20.35-17h1c10.87 1.18 15.94 11.07 14.46 21.9l-3.38 36.21-.18 1.76-25.39 3.85.49-9.24s-10.39-2.15-10-12.64c.19-5.06 1.42-15.45 2.65-24.84" style="fill:#9f7362"/><path d="M377.07 144.74A25.45 25.45 0 0 0 391 141.4s-3.6 7.38-14 5.92Z" style="fill:#65463c"/><path d="M372.08 116.94a1.49 1.49 0 0 0 1.37 1.58 1.41 1.41 0 0 0 1.6-1.27 1.49 1.49 0 0 0-1.36-1.58 1.42 1.42 0 0 0-1.61 1.27m-.28-4.43c.18.21 1.35-.58 3-.49s2.75 1 2.93.76-.08-.45-.57-.85a4.23 4.23 0 0 0-2.34-.85 4 4 0 0 0-2.37.64c-.55.36-.74.7-.65.79m14.94 5.21a1.49 1.49 0 0 0 1.37 1.58 1.43 1.43 0 0 0 1.61-1.27 1.49 1.49 0 0 0-1.37-1.58 1.43 1.43 0 0 0-1.61 1.27m.87-4.12c.17.2 1.35-.58 3-.49s2.75.94 2.93.75-.08-.44-.57-.84a4.15 4.15 0 0 0-2.34-.85 3.94 3.94 0 0 0-2.37.64c-.55.35-.74.7-.65.79m-6.44 11.65a10.2 10.2 0 0 0-2.59-.6c-.41-.07-.79-.17-.85-.45a2.1 2.1 0 0 1 .34-1.21l1.37-3.07c1.91-4.37 3.31-8 3.14-8s-1.87 3.41-3.78 7.78l-1.32 3.09a2.4 2.4 0 0 0-.3 1.61 1 1 0 0 0 .65.63 2.8 2.8 0 0 0 .69.13 10.7 10.7 0 0 0 2.65.09m6.09-15.32c.2.41 1.6 0 3.3.07s3.12.38 3.29 0c.08-.2-.2-.58-.8-.94a5 5 0 0 0-2.52-.66 4.9 4.9 0 0 0-2.5.63c-.58.32-.85.7-.77.9m-15.21-4.06c.32.38 1.67.07 3.27.13s2.94.39 3.27 0c.14-.18 0-.56-.63-.93a5.46 5.46 0 0 0-5.26-.13c-.58.38-.79.75-.65.93" style="fill:#263238"/><path d="M371.05 102.52s3.09-6.42 6.33-7.8c3.92-1.66 5.36 2.63 9.06 1.79s7.44-2.44 11 .57c3.93 3.29 1.91 5.36 1.93 10 .09 18.9 3.27 24.4 4.69 15.57.15-1 2.89-1.61 3.49-5.7.79-5.3 1.31-11.76.31-15.6-.84-3.23-2.55-5.52-5.69-8.11-4.95-4.09-12-4.52-16.83-4.28s-14.34 5.33-14.29 13.56" style="fill:#263238"/><path d="M403.43 122.35a2.86 2.86 0 0 1 3.21-2.59c1.94.29 4.06 1.5 3.73 5.53-.58 7.16-7.64 5.09-7.64 4.89s.43-4.84.7-7.83" style="fill:#9f7362"/><path d="M404.51 127.61s.12.1.32.22a1.26 1.26 0 0 0 .93.09 3.08 3.08 0 0 0 1.65-2.65 4.1 4.1 0 0 0-.2-1.81 1.46 1.46 0 0 0-.86-1 .62.62 0 0 0-.76.28c-.12.19-.08.34-.12.35s-.14-.14-.06-.43a.77.77 0 0 1 .32-.42.92.92 0 0 1 .7-.13 1.77 1.77 0 0 1 1.21 1.22 4.2 4.2 0 0 1 .27 2c-.16 1.43-1 2.72-2.07 2.94a1.32 1.32 0 0 1-1.12-.29c-.21-.19-.24-.35-.21-.37" style="fill:#65463c"/><path d="M404 108.47a6.8 6.8 0 0 1-3.1 1.25 2.34 2.34 0 0 1-2.51-1.77c-.06-.51.09-1.08-.22-1.48s-1.1-.37-1.7-.34a4.57 4.57 0 0 1-4.58-3.51 1.92 1.92 0 0 1-2.59.11 10 10 0 0 1-1.84-2.18A3 3 0 0 0 385 99.2a6.7 6.7 0 0 1-1.58.26c-.93-.13-1.34-1.25-1.43-2.19s-.16-2-.93-2.58a3.74 3.74 0 0 0-2.55-.2c-.88.08-2-.17-2.16-1a1.72 1.72 0 0 1 .38-1.29 4.65 4.65 0 0 1 5.56-1.48 6.3 6.3 0 0 1 11.71-.67 6.37 6.37 0 0 1 10 2.83 4.63 4.63 0 0 1 4.88 7 4.37 4.37 0 0 1 2.24 3.61c0 1.49-1.56 2.89-3 2.43a2.56 2.56 0 0 1-4.56 2.33" style="fill:#263238"/><path d="M381.7 92.77v.52a4.6 4.6 0 0 0 .45 1.4 5.3 5.3 0 0 0 1.5 1.78 4.9 4.9 0 0 0 2.9 1l-.12-.17a2.6 2.6 0 0 0 .05 2 7.5 7.5 0 0 0 1.14 1.82 5 5 0 0 0 .76.86 2.5 2.5 0 0 0 1.11.48 2.64 2.64 0 0 0 2.35-.71l-.27-.09a5.4 5.4 0 0 0 2.1 3.83 3.94 3.94 0 0 0 2.31.89 7.2 7.2 0 0 0 2.34-.4l-.18-.09a5.6 5.6 0 0 0 1.58 2.29 3 3 0 0 0 2.46.81 4 4 0 0 0 3.19-2.94l-.16.07a3.7 3.7 0 0 0 2.44.48 4.1 4.1 0 0 0 1.76-.68 3.6 3.6 0 0 0 .84-.83 1.3 1.3 0 0 0 .2-.37 3.89 3.89 0 0 1-2.82 1.71 3.53 3.53 0 0 1-2.3-.5l-.13-.08v.15a3.74 3.74 0 0 1-3 2.72 2.71 2.71 0 0 1-2.23-.76 5.5 5.5 0 0 1-1.49-2.17l-.05-.14h-.13a6.9 6.9 0 0 1-2.3.35 3.66 3.66 0 0 1-2.13-.83 5.05 5.05 0 0 1-2-3.61v-.34l-.24.25a2.31 2.31 0 0 1-2.07.63 2.2 2.2 0 0 1-1-.42 4.6 4.6 0 0 1-.71-.8 7.3 7.3 0 0 1-1.12-1.75 2.4 2.4 0 0 1-.07-1.8l.07-.16h-.18a4.57 4.57 0 0 1-2.77-.9 5.1 5.1 0 0 1-1.5-1.68 5.4 5.4 0 0 1-.58-1.82" style="fill:#455a64"/><path d="M386.06 129.7a12.2 12.2 0 0 1-3.42.74 12 12 0 0 1-3.49.23 11.8 11.8 0 0 1 3.42-.74 12 12 0 0 1 3.49-.23" style="fill:#263238"/><path d="M425.86 404.9a11.6 11.6 0 0 0 0 1.9c0 1.21.13 3 .25 5.15.25 4.35.68 10.35 1.18 17s.94 12.63 1.22 17c.14 2.1.25 3.83.34 5.15a13 13 0 0 0 .19 1.89 11 11 0 0 0 0-1.9c0-1.22-.06-3-.15-5.16-.17-4.35-.54-10.36-1.05-17s-1-12.53-1.35-17c-.18-2.09-.32-3.82-.44-5.14a12 12 0 0 0-.19-1.89" style="fill:#455a64"/><path d="M425.86 404.9a11.6 11.6 0 0 0 0 1.9c0 1.21.13 3 .25 5.15.25 4.35.68 10.35 1.18 17s.94 12.63 1.22 17c.14 2.1.25 3.83.34 5.15a13 13 0 0 0 .19 1.89 11 11 0 0 0 0-1.9c0-1.22-.06-3-.15-5.16-.17-4.35-.54-10.36-1.05-17s-1-12.53-1.35-17c-.18-2.09-.32-3.82-.44-5.14a12 12 0 0 0-.19-1.89" style="fill:#455a64"/><path d="m377.92 436.26.36 20.31s-20.52 7.18-20.82 10.94l39.4.72.74-31.67Z" style="fill:#263238"/><path d="M390.5 455.08a1.61 1.61 0 0 1 1.08 1.86 1.55 1.55 0 0 1-1.83 1.08 1.7 1.7 0 0 1-1.14-2 1.61 1.61 0 0 1 2-.92" style="fill:#e0e0e0"/><path d="m396.86 468.23-.05-3.19-37.76.5s-1.77.73-1.59 2Z" style="fill:#455a64"/><path d="M377.65 456.35c0 .2 1 .3 1.9.94s1.42 1.45 1.6 1.38-.09-1.19-1.24-1.94-2.3-.55-2.26-.38m-4.17 1.65c-.05.18.78.53 1.42 1.35s.81 1.69 1 1.69.34-1.09-.48-2.11-1.93-1.13-1.94-.93m-2.48 4.89c.18.05.46-.91 0-2s-1.37-1.5-1.45-1.34.46.73.84 1.61.46 1.71.61 1.73m7.08-11.17c.08.17 1-.08 2.05 0s1.93.45 2 .29-.7-.87-2-1-2.13.55-2.05.71" style="fill:#fff"/><path d="m426 435 2.13 24.49-3.89 19.85a2.52 2.52 0 0 0 2.15 3 2.52 2.52 0 0 0 2.17-.79c3.51-3.83 16.36-18 16.11-19.76-.3-2.07-.54-26-.54-26Z" style="fill:#263238"/><path d="m426.39 482.33 18.17-22.21.07 1a3.82 3.82 0 0 1-.74 2.51c-1.44 1.93-5.54 7.17-15.26 17.87a2.51 2.51 0 0 1-2.24.79Z" style="fill:#455a64"/><g style="opacity:.6000000000000001"><path d="M439 452.53a1.52 1.52 0 0 0-.29 2 1.46 1.46 0 0 0 2 .31 1.61 1.61 0 0 0 .3-2.13 1.52 1.52 0 0 0-2.11-.09" style="fill:#fff"/></g><path d="M431.31 471.25a5.45 5.45 0 0 0-5.13-2.12c0-.06.27-.27.84-.39a4 4 0 0 1 2.23.25 3.85 3.85 0 0 1 1.74 1.4c.32.48.38.84.32.86m-1.53 3.4a20 20 0 0 0-2.24-.91 22 22 0 0 0-2.42-.16 2.79 2.79 0 0 1 2.54-.37c1.47.33 2.24 1.37 2.12 1.44m4.51-7.81a24.5 24.5 0 0 0-3.36-1.65 25 25 0 0 0-3.69-.61 5.54 5.54 0 0 1 3.86.1 5.48 5.48 0 0 1 3.19 2.16m-.02-7.5c-.06.15-1.45-.33-3.22-.28s-3.14.56-3.2.42a6.24 6.24 0 0 1 6.42-.14m-.45-7.2a11.7 11.7 0 0 0-3.34-.38 12.4 12.4 0 0 0-3.2 1s.21-.37.75-.73a5.47 5.47 0 0 1 4.91-.49c.61.27.92.54.88.6m-3.38-1.75a2.1 2.1 0 0 1-.09-.93 6.3 6.3 0 0 1 .58-2.48 2.82 2.82 0 0 1 1.14-1.44 1 1 0 0 1 1.15.15 1.7 1.7 0 0 1 .46 1.08 3.57 3.57 0 0 1-2.9 3.49 4.13 4.13 0 0 1-4.19-1.9 1.41 1.41 0 0 1-.14-1.18 1 1 0 0 1 1-.59 3.57 3.57 0 0 1 1.67.73 7.1 7.1 0 0 1 1.79 1.8 2.5 2.5 0 0 1 .44.83 11.8 11.8 0 0 0-2.44-2.31 3.26 3.26 0 0 0-1.47-.6.53.53 0 0 0-.55.31 1 1 0 0 0 .14.78 3.69 3.69 0 0 0 3.65 1.6 3.09 3.09 0 0 0 2.5-2.92 1.12 1.12 0 0 0-.29-.77.55.55 0 0 0-.63-.1 2.63 2.63 0 0 0-1 1.21 9.4 9.4 0 0 0-.82 3.24" style="fill:#fff"/><path d="M358.77 266.66a87 87 0 0 0-1.9 25.66c.42 5.45 18.82 156.34 18.82 156.34h24.85l-7-141.81 2 .44s13.57 60.48 14.67 70.28c1 8.8 12.44 72.75 12.44 72.75l22.72.26-7.21-84.58-8.44-81.16-3.18-23.62Z" style="fill:#455a64"/><path d="M397.47 292.38a4.6 4.6 0 0 1-1 .59 12 12 0 0 1-3.08 1.07 6.3 6.3 0 0 1-2.29 0 4.6 4.6 0 0 1-2.39-1.15 5.67 5.67 0 0 1-1.46-2.54c-.29-1-.46-2-.66-3-.79-4.09-1.33-7.83-1.64-10.54-.16-1.36-.26-2.46-.32-3.22a4.5 4.5 0 0 1 0-1.19 6.5 6.5 0 0 1 .23 1.17c.13.86.29 1.93.49 3.19.4 2.7 1 6.41 1.79 10.49.4 2 .67 4.08 1.93 5.28a5.19 5.19 0 0 0 4.29 1.12 14.2 14.2 0 0 0 3.05-.9 6.4 6.4 0 0 1 1.06-.37M390 273.15a.8.8 0 0 1 .51-.15 2.25 2.25 0 0 1 1.4.44 2.51 2.51 0 0 1 1 1.92 2.46 2.46 0 0 1-4.19 1.58 2.49 2.49 0 0 1-.48-2.14 2.22 2.22 0 0 1 .76-1.25c.28-.21.47-.24.48-.22a2.83 2.83 0 0 0-.87 1.54 2.17 2.17 0 0 0 .47 1.75 1.87 1.87 0 0 0 2.06.38 1.85 1.85 0 0 0 1.29-1.64 2.18 2.18 0 0 0-.79-1.62 2.72 2.72 0 0 0-1.64-.59m39.37 10.23a2.8 2.8 0 0 1-.84.13 17 17 0 0 1-2.33 0 22.65 22.65 0 0 1-14-5.88 15 15 0 0 1-1.6-1.69c-.35-.42-.53-.67-.5-.69s.87.85 2.35 2.1a25.1 25.1 0 0 0 13.74 5.79c1.97.21 3.18.14 3.18.24M369 273.6a10 10 0 0 1-1.28 2.54 28.5 28.5 0 0 1-9.78 9.5 10.4 10.4 0 0 1-2.57 1.22c0-.07.92-.58 2.37-1.53a36 36 0 0 0 5.3-4.22 35 35 0 0 0 4.36-5.18c.95-1.42 1.49-2.37 1.6-2.33" style="fill:#263238"/><path d="m288.67 171.18 12.81 5.29 13.26 19.24-4.23 6.29-3.67-3.67s-14.54-3.4-15.48-5.46a3.72 3.72 0 0 1 .35-3.7 8.26 8.26 0 0 1 .09-3.91 2.6 2.6 0 0 1 1.94-1.84 1.92 1.92 0 0 1-.78-2.65 3.45 3.45 0 0 1 2.24-2.22s-8.54-4.46-9.25-5.63a.89.89 0 0 1 .14-1.12 2.24 2.24 0 0 1 2.58-.62" style="fill:#9f7362"/><path d="m317.19 192-2.45-3.68-5.16-10.18-12.51-4s-2.18.85.57 4.63a7.87 7.87 0 0 0 6.93 3.26s-1.32 7.84.73 11.48 8.08 4.27 8.08 4.27Z" style="fill:#9f7362"/><path d="M305.12 194.07a3.7 3.7 0 0 1-.51-.81 11.7 11.7 0 0 1-.92-2.47 13 13 0 0 1 .82-8.59l.18.37-.45-.1a15.9 15.9 0 0 1-4.72-1.59 6.2 6.2 0 0 1-2.74-3 4.34 4.34 0 0 1-.25-2.74 1.94 1.94 0 0 1 .43-.92s-.13.34-.24 1a4.53 4.53 0 0 0 .4 2.55 6 6 0 0 0 2.64 2.76 16.5 16.5 0 0 0 4.59 1.5l.45.1.32.07-.14.29a13.28 13.28 0 0 0-.93 8.29 28 28 0 0 0 1.07 3.29" style="fill:#65463c"/><path d="M294.07 183.79s.46.19 1.28.52 2 .78 3.47 1.42a12.5 12.5 0 0 1 2.3 1.25 2.5 2.5 0 0 1 1 1.2 1.81 1.81 0 0 1-.34 1.64 3 3 0 0 1-1.39 1 3 3 0 0 1-1.79 0l-.83-.19a5.5 5.5 0 0 1-.88-.24c-.56-.19-1.12-.43-1.68-.67l-1.48-.64.19-.49a13 13 0 0 1 2.81 1.74l1.23.9a13 13 0 0 1 1.22.87 1.77 1.77 0 0 1 .64 1.39 1.13 1.13 0 0 1-.31.74 1.54 1.54 0 0 1-.62.39 5.6 5.6 0 0 1-2.4.18 11.3 11.3 0 0 1-3.24-1 5.7 5.7 0 0 1-1.09-.58 7 7 0 0 1 1.16.4 13.3 13.3 0 0 0 3.2.84 5.5 5.5 0 0 0 2.22-.22.85.85 0 0 0 .64-.76 1.37 1.37 0 0 0-.52-1 12 12 0 0 0-1.18-.81l-1.24-.9a13.3 13.3 0 0 0-2.7-1.65l.19-.48 1.49.65c.55.23 1.1.46 1.64.65a6 6 0 0 0 .81.23c.29.05.57.13.85.19a2.5 2.5 0 0 0 1.51 0 2.6 2.6 0 0 0 1.17-.84 1.36 1.36 0 0 0 .28-1.23 2.07 2.07 0 0 0-.81-1 13.3 13.3 0 0 0-2.21-1.27c-1.42-.67-2.61-1.17-3.4-1.57a5 5 0 0 1-1.19-.66m1.27-5.18a9.4 9.4 0 0 1 2.64 1 20 20 0 0 1 2.64 1.63c.47.34.95.72 1.43 1.14a2.66 2.66 0 0 1 1.13 1.77 1.34 1.34 0 0 1-.52 1.06 1.93 1.93 0 0 1-1 .41 6.8 6.8 0 0 1-1.88-.12 25 25 0 0 1-3-.79 8.7 8.7 0 0 1-2.6-1.16c0-.07 1 .35 2.71.8a27 27 0 0 0 3 .67 6.2 6.2 0 0 0 1.72.1c.55-.06 1.09-.45 1.08-1a2.28 2.28 0 0 0-1-1.4q-.69-.62-1.38-1.14a26 26 0 0 0-2.51-1.58c-1.49-.89-2.5-1.31-2.46-1.39" style="fill:#65463c"/><path d="m340.78 203.52 11.61-37.11 18.78-10.24L360 220.26l-2.24 4.79c-5.21 9.73-15.36 7.5-24.15 2.6-.32-.17-.62-.35-.92-.54l-25.32-21.78 9.54-14.61Z" style="fill:#e0e0e0"/><path d="M343.09 215.15c-.16 0-.07-2.69-.8-5.88s-1.92-5.58-1.77-5.66a17.66 17.66 0 0 1 2.57 11.54" style="fill:#263238"/><path d="M370.19 154.79c-4.74.29-13.33 3.14-17 9.93-3 5.68-3.87 29.93-4 30.5l9.14 2.37L370 214.86l47.81-10.67 3 7.54 1.83-54s-47.71-3.24-52.45-2.94" style="fill:#e0e0e0"/><path d="m425.72 236.39 3.65-51.58-.85-24.46-22.35-9.86-2.17-8.55-23.2 10.95-4.8-5.36-2 6-5.08 1.65L357 175.4l.17 33.76S356 250.4 357 264.75a4.43 4.43 0 0 0 3 3.9 43 43 0 0 0 12.66 1.87c23.32.56 55.07-.92 55.07-.92l.33-1a20.4 20.4 0 0 0 .78-8.81Z" style="fill:#e0e0e0"/><path d="M372.68 268.52a1 1 0 0 1-.05-.28c0-.23 0-.5-.06-.83 0-.78-.1-1.83-.18-3.17-.12-2.81-.3-6.78-.51-11.67-.37-9.85-.84-23.48-.68-38.54.09-7.53.34-14.72 1.06-21.22s1.87-12.28 2.88-17.11 2-8.7 2.61-11.38c.32-1.3.58-2.32.77-3.08l.22-.8a1 1 0 0 1 .09-.26 1 1 0 0 1 0 .28c0 .22-.1.49-.16.81l-.66 3.11c-.58 2.69-1.45 6.58-2.42 11.41s-2 10.61-2.74 17.08-.92 13.64-1 21.16c-.15 15.05.24 28.67.5 38.53.13 4.88.24 8.85.32 11.67 0 1.34.05 2.4.07 3.18v.82a1.6 1.6 0 0 1-.06.29" style="fill:#263238"/><path d="M404 141.94s-2.59.75-9.24 4.3-13.91 6.65-13.91 6.65l.57 10.45L406 151m-30.04-3.47 4.84 5.35-2.59 11.21-4.32-10.13" style="fill:#e0e0e0"/><path d="M380.71 154c-.21.16-1.56 12.93-1.56 12.93l24.69-14.92-22.47 11.29Z" style="opacity:.30000000000000004"/><path d="M376.49 166.5a363.4 363.4 0 0 0-8.25 53.9c-1 12.59-1.66 29.28-1.66 29.28l5.62 6.95 8.6-7.61s-.37-35.46.08-47.32c.37-9.77-1.17-34.69-1.17-34.69Z" style="fill:#67298c"/><path d="m380.88 157.88-2.2-.86-2.09 3.59-.38 5.89 2.94.47 2.22-3.63z" style="fill:#67298c"/><path d="M381 152.79s-.48.83-1.26 2.13-1.82 3.15-2.8 5.25l-.24.51-.15.33-.16-.33a42 42 0 0 1-2.06-5.22c-.21-.68-.37-1.23-.46-1.62a2.4 2.4 0 0 1-.11-.6 22 22 0 0 1 .79 2.15c.48 1.33 1.2 3.16 2.15 5.14h-.31l.24-.51a44 44 0 0 1 2.9-5.23c.42-.65.78-1.15 1-1.49a2.3 2.3 0 0 1 .47-.51m25.17-2.3s-.11.08-.34.21l-1 .52-3.68 1.91c-3.1 1.61-7.35 3.91-12.06 6.43-2.87 1.53-5.59 2.94-7.95 4.13l-.22.11v-.25c0-3.06-.06-5.65-.08-7.51v-2.12a4 4 0 0 1 0-.76 4 4 0 0 1 .06.75c0 .54.05 1.24.08 2.12.05 1.87.12 4.45.2 7.52l-.22-.14c2.35-1.2 5.06-2.63 7.93-4.15 4.71-2.52 9-4.79 12.11-6.35 1.57-.78 2.85-1.4 3.73-1.81l1-.46a2 2 0 0 1 .44-.15m-27.55 16.86c-.06.08-.61-.18-1.25-.59s-1.12-.79-1.07-.87.61.18 1.25.58 1.12.8 1.07.88" style="fill:#263238"/><path d="M379.67 165.91a17 17 0 0 1-1.49-3 17 17 0 0 1-1.19-3.12 32 32 0 0 1 2.68 6.1Zm-23.06 20.57c.14 0 .26 9.75.26 21.78s-.12 21.77-.26 21.77-.27-9.75-.27-21.77.12-21.78.27-21.78" style="fill:#263238"/><path d="M377.73 154.64a30 30 0 0 1-.33-7.11s1.62-4.61 1.38-5.42-.65-1.69-2.27-.89a6.32 6.32 0 0 0-3.88 4.93 14.3 14.3 0 0 1-.64 3.64l-1.54-2.34.32-2.43s2.29-.57 2.36-1.79a26 26 0 0 0-2.3-1.64s-4.1.2-4.5 1.74-1.46 4.84-1.46 4.84-3.39.57-3.79 3.32c0 0-1.94 2.58-1.86 4.2a7.66 7.66 0 0 0-1 3.4c.08 1.53 4.52 8 4.52 8l1.23 9.19 12.64-3.28-.82-9.23s2.58-5.77 1.94-9.13" style="fill:#9f7362"/><path d="M377.73 154.64a5 5 0 0 1 .12.63 9.7 9.7 0 0 1 0 1.84 26 26 0 0 1-1.9 6.72v-.07c.25 2.58.54 5.7.88 9.22v.17h-.16l-12.6 3.32-.25.07v-.26c-.39-2.91-.81-6-1.25-9.2l.05.11c-1.15-1.68-2.29-3.43-3.36-5.3-.27-.47-.52-1-.76-1.45a3.8 3.8 0 0 1-.46-1.67 7.8 7.8 0 0 1 1-3.25v.14a4.4 4.4 0 0 1 .42-1.82 13.5 13.5 0 0 1 1.49-2.55l-.05.12a3.78 3.78 0 0 1 1.47-2.42 6.4 6.4 0 0 1 2.54-1.11l-.2.18 1.5-4.94a2 2 0 0 1 1-1 6 6 0 0 1 1.22-.44 14 14 0 0 1 2.47-.38h.14l1.27.86.63.44.3.24.09.07.06.07a.3.3 0 0 1 .06.19v.23a2.16 2.16 0 0 1-1.09 1.2 6 6 0 0 1-1.41.57l.18-.2c-.12.83-.22 1.63-.33 2.43v-.16c.52.81 1 1.59 1.53 2.35h-.39a14.7 14.7 0 0 0 .56-2.79 7 7 0 0 1 .65-2.73 7.48 7.48 0 0 1 3.89-3.32 1.6 1.6 0 0 1 1.27 0 1.62 1.62 0 0 1 .72 1 1.35 1.35 0 0 1 .09.6c0 .2 0 .37-.07.55-.07.36-.15.7-.24 1-.36 1.32-.76 2.49-1.13 3.54a32.5 32.5 0 0 0 0 5.28c.05.6.11 1.05.15 1.36a3 3 0 0 1 .05.46 2 2 0 0 1-.12-.45c-.06-.3-.14-.76-.21-1.36a30 30 0 0 1-.12-5.31c.35-1.05.73-2.23 1.07-3.54.08-.33.16-.66.22-1a5 5 0 0 0 .06-.52.9.9 0 0 0-.08-.47 1.27 1.27 0 0 0-.56-.79 1.23 1.23 0 0 0-1 0 7.18 7.18 0 0 0-3.66 3.16 6.8 6.8 0 0 0-.58 2.6 14.2 14.2 0 0 1-.57 2.91l-.14.41-.25-.38-1.54-2.34-.05-.07v-.08c.1-.8.2-1.6.31-2.43v-.15h.16a5.7 5.7 0 0 0 1.28-.53 1.78 1.78 0 0 0 .87-.91v-.14h.23a.14.14 0 0 0-.09 0s-.14.09-.1.1l-.05-.05-.29-.22-.61-.43-1.27-.85h.15a14 14 0 0 0-2.37.37c-.74.21-1.62.52-1.87 1.13-.48 1.61-1 3.25-1.48 4.92v.15h-.16a5.8 5.8 0 0 0-2.31 1 3.28 3.28 0 0 0-1.28 2.09v.06a13.3 13.3 0 0 0-1.42 2.45 3.85 3.85 0 0 0-.38 1.59v.14a7.55 7.55 0 0 0-.94 3 3.3 3.3 0 0 0 .42 1.43c.23.48.48 1 .74 1.41 1 1.85 2.19 3.6 3.32 5.28v.1c.42 3.21.83 6.29 1.22 9.2l-.3-.19 12.62-3.25-.14.21c-.3-3.52-.56-6.65-.78-9.23v-.08a26.3 26.3 0 0 0 2-6.61 10.7 10.7 0 0 0-.1-2.23" style="fill:#65463c"/><path d="M374.67 154.34a8.9 8.9 0 0 1-1.74-2.45 8.6 8.6 0 0 1-1.27-2.7 8.8 8.8 0 0 1 1.73 2.45 9 9 0 0 1 1.28 2.7" style="fill:#65463c"/><path d="M384.92 227.38a40.86 40.86 0 0 0 39.42-31.63Z" style="opacity:.30000000000000004"/><path d="m377 172.58 9.33 25.34 26.55-30.55s11.64-13.1 17.12-5.37 2.7 22.34-.78 29.27C426 197.73 389.47 228 384 228.63s-12.16.57-15.81-6.34-11.61-44.8-11.61-44.8Z" style="fill:#e0e0e0"/><path d="M413.24 167s-.14.2-.46.57l-1.4 1.64-5.38 6.16-19.53 22.3-.23.27-.12-.33c-2.83-7.52-6-15.92-9.37-24.94l.29.15-18.74 4.52.2-.29c.64 3.84 1.34 7.89 2.09 12 1.23 6.71 2.5 13.25 3.89 19.53.72 3.13 1.42 6.21 2.3 9.17a31 31 0 0 0 1.54 4.27 13.9 13.9 0 0 0 2.59 3.54 12 12 0 0 0 7.65 3.24 19 19 0 0 0 4.07-.16 11.7 11.7 0 0 0 3.76-1.14 81.4 81.4 0 0 0 12.11-8.08c7.07-5.47 12.51-10.25 16.26-13.56l4.29-3.84 1.11-1c.26-.22.4-.32.4-.32s-.12.13-.36.36l-1.08 1c-.95.91-2.37 2.23-4.23 3.91-3.71 3.36-9.11 8.18-16.16 13.7-1.76 1.38-3.65 2.78-5.64 4.19a52 52 0 0 1-6.52 4 12.2 12.2 0 0 1-3.87 1.19 19.4 19.4 0 0 1-4.18.18 12.46 12.46 0 0 1-7.94-3.35 14 14 0 0 1-2.69-3.67 33 33 0 0 1-1.59-4.35c-.89-3-1.59-6.07-2.32-9.2-1.4-6.29-2.67-12.83-3.9-19.55-.75-4.11-1.45-8.16-2.09-12v-.24h.23l18.75-4.5.21-.05.08.21 9.29 25-.35-.07 19.66-22.17c2.35-2.64 4.2-4.7 5.47-6.12l1.44-1.6c.29-.43.47-.57.47-.57m13.59-6.54a24 24 0 0 0-5.67 1 23.5 23.5 0 0 0-5 2.77A9.9 9.9 0 0 1 421 161a10.1 10.1 0 0 1 5.83-.54" style="fill:#263238"/></svg>